<svg id="Google" xmlns="http://www.w3.org/2000/svg" width="22" height="22" viewBox="0 0 22 22">
  <rect id="Rectangle_25324" data-name="Rectangle 25324" width="21.858" height="21.619" transform="translate(0 0.381)" fill="none"/>
  <path id="Path_15857" data-name="Path 15857" d="M5.95,40.605a6.616,6.616,0,0,1,.336-2.077l-3.771-2.88a11.267,11.267,0,0,0,0,9.911l3.769-2.886a6.62,6.62,0,0,1-.333-2.068" transform="translate(-1.127 -29.605)" fill="#fbbc05" fill-rule="evenodd"/>
  <path id="Path_15858" data-name="Path 15858" d="M17.913,4.578a6.4,6.4,0,0,1,4.092,1.475L25.239,2.8a11.058,11.058,0,0,0-17.3,3.435l3.741,2.88a6.556,6.556,0,0,1,6.235-4.535" transform="translate(-6.55)" fill="#ea4335" fill-rule="evenodd"/>
  <path id="Path_15859" data-name="Path 15859" d="M18,80.416a6.6,6.6,0,0,1-6.286-4.535L7.938,78.76A11.172,11.172,0,0,0,18,84.994,10.679,10.679,0,0,0,25.3,82.2l-3.58-2.768A6.932,6.932,0,0,1,18,80.416" transform="translate(-6.55 -62.994)" fill="#34a853" fill-rule="evenodd"/>
  <path id="Path_15860" data-name="Path 15860" d="M76.154,54.4a9.269,9.269,0,0,0-.255-2.035H65.457v4.323h6.011a5.039,5.039,0,0,1-2.289,3.345l3.58,2.768a11.129,11.129,0,0,0,3.4-8.4" transform="translate(-54.154 -43.589)" fill="#4285f4" fill-rule="evenodd"/>
</svg>
