<svg xmlns="http://www.w3.org/2000/svg" width="90" height="83" viewBox="0 0 90 83">
  <g id="Group_25673" data-name="Group 25673" transform="translate(0 0.445)">
    <rect id="Rectangle_26090" data-name="Rectangle 26090" width="90" height="73.596" rx="36.798" transform="translate(0 -0.445)" fill="#f0f0f0"/>
    <path id="Path_20027" data-name="Path 20027" d="M222.874,78.448a15.765,15.765,0,0,1,1.669-1.172,3.153,3.153,0,0,1,2.1-.344,2.09,2.09,0,0,1,1.534,2.168,5.233,5.233,0,0,1-1.023,2.677,20.673,20.673,0,0,1-4.173,4.934" transform="translate(-161.916 -56.996)" fill="#fff"/>
    <path id="Union_48" data-name="Union 48" d="M.163,10.979A.89.89,0,0,1,.526,9.963,10.15,10.15,0,0,0,2.479,7.969a31.341,31.341,0,0,0,2-2.752,3.55,3.55,0,0,0,.785-2.5l0-.014a1.353,1.353,0,0,0-.442-.748,1.1,1.1,0,0,0-.687-.167c-.059,0-.123,0-.194,0a2.141,2.141,0,0,0-1.114.388l-.02.013a13.571,13.571,0,0,0-1.3.915.9.9,0,0,1-.613.238A.893.893,0,0,1,.265,3.1L.257,3.089a.9.9,0,0,1,0-1.259l.014-.016L.287,1.8A14.3,14.3,0,0,1,2.17.477L2.18.471A3.888,3.888,0,0,1,4.03,0c.094,0,.189,0,.285.01A2.749,2.749,0,0,1,6.1.709l.012.01a3.149,3.149,0,0,1,.87,1.522,4.861,4.861,0,0,1-.913,3.8A31.69,31.69,0,0,1,3.724,9.264,10.962,10.962,0,0,1,1.471,11.48a.877.877,0,0,1-.481.151A.88.88,0,0,1,.163,10.979Z" transform="translate(60.067 19.005)" fill="#0eaa92"/>
    <path id="Path_20029" data-name="Path 20029" d="M2.4,154.672a39.8,39.8,0,0,1,4.8-9.431A8.815,8.815,0,0,0,8.952,141.8a8.991,8.991,0,0,0-.016-2.1c-.38-5.047-.6-11.076.073-12.72,1.067-2.6,1.666-7.84,1.905-10.591a5.131,5.131,0,0,1,.715-1.689q.171-.268.326-.554a22.1,22.1,0,0,0,1.9-5.979,7.319,7.319,0,0,1,.533-1.9,1.96,1.96,0,0,1,1.51-1.14c1-.065,1.741.9,2.156,1.809a11.139,11.139,0,0,1-.535,10.117l21.767,24.1C36,145.409,34.019,147.4,28.036,151.318c-.815.534-3.783,2.167-4.528,2.807-2.451,2.106-4.184,5.542-5.262,8.559Z" transform="translate(16.668 -81.021)" fill="#fff"/>
    <path id="Path_20030" data-name="Path 20030" d="M107.923,48.659V7.065a4.653,4.653,0,0,0-4.647-4.647H84.641a4.653,4.653,0,0,0-4.649,4.647V53.609a4.653,4.653,0,0,0,4.649,4.647h18.635a4.653,4.653,0,0,0,4.641-4.417Z" transform="translate(-46.965 3.686)" fill="#ffe302"/>
    <path id="Union_42" data-name="Union 42" d="M23.3,57.631H5.544a5.528,5.528,0,0,1-3.28-1.082A5.649,5.649,0,0,1,0,52V8.85q0-.541,0-1.087C0,7.043,0,6.3,0,5.576A5.585,5.585,0,0,1,3,.621l0,0A6.674,6.674,0,0,1,6.153,0h17.5a6.986,6.986,0,0,1,2.285.289,5.621,5.621,0,0,1,3.784,5.258c0,.742,0,1.489,0,2.216v39.8h-.108a.88.88,0,0,1-.789.449.865.865,0,0,1-.893-.876V5.617a3.8,3.8,0,0,0-2.019-3.4,4.785,4.785,0,0,0-2.347-.426H23.32v.478a1.9,1.9,0,0,1-1.89,1.894l-6.323.008L8.784,4.163a1.9,1.9,0,0,1-1.89-1.894V1.792h0c-.153,0-.309,0-.46-.006s-.305-.006-.455-.006a5.3,5.3,0,0,0-1.534.177A3.786,3.786,0,0,0,1.79,5.567c0,.215,0,.426,0,.637V51.877a3.889,3.889,0,0,0,.919,2.668,3.766,3.766,0,0,0,2.555,1.286c.131.008.269.008.385.008H22.423c.389,0,.778,0,1.167,0,.195,0,.389,0,.582,0a3.8,3.8,0,0,0,3.756-3.55.9.9,0,0,1,.919-.848.881.881,0,0,1,.647.268.839.839,0,0,1,.221.631,5.6,5.6,0,0,1-4.564,5.2,8.527,8.527,0,0,1-1.392.094C23.607,57.637,23.456,57.633,23.3,57.631Z" transform="translate(32.453 5.016)" fill="#0eaa92" stroke="rgba(0,0,0,0)" stroke-miterlimit="10" stroke-width="1"/>
    <path id="Path_20034" data-name="Path 20034" d="M124.659,278.132h9.949a.464.464,0,0,0,0-.927h-9.948a.464.464,0,0,0,0,.927Z" transform="translate(-82.053 -219.351)" fill="#009380"/>
    <path id="Path_20035" data-name="Path 20035" d="M135.432,9.734l3.66,0a.464.464,0,0,0,0-.927l-3.66,0a.464.464,0,0,0,0,.927" transform="translate(-90.716 -1.658)" fill="#fff"/>
    <path id="Path_20036" data-name="Path 20036" d="M165.053,9.5a.541.541,0,0,0,0-1.082.541.541,0,0,0,0,1.082" transform="translate(-114.606 -1.344)" fill="#fff"/>
    <path id="Path_20037" data-name="Path 20037" d="M50.181,114.7q.171-.268.326-.554a22.1,22.1,0,0,0,1.9-5.979,7.32,7.32,0,0,1,.534-1.9,1.96,1.96,0,0,1,1.51-1.14c1-.065,1.741.9,2.156,1.809a11.139,11.139,0,0,1-.535,10.117" transform="translate(-22.053 -79.92)" fill="#fff"/>
    <g id="Group_25484" data-name="Group 25484" transform="translate(18.172 23.815)">
      <path id="Union_47" data-name="Union 47" d="M.664,22.284l-.013,0a.906.906,0,0,1-.622-1.1l.01-.035a24.694,24.694,0,0,1,3.815-7.172,10.851,10.851,0,0,1,2.179-2.145l.008-.006c.667-.463,1.41-.9,1.952-1.213l.239-.141c.182-.107.361-.211.542-.315l.035-.02c.492-.288.935-.545,1.359-.816.994-.639,1.993-1.32,3.054-2.083a34.538,34.538,0,0,0,4.388-3.662A44.042,44.042,0,0,0,20.724,0h1.085V0h.073l0,0h.932A.868.868,0,0,1,22.7.343l-.014.024L22.668.39A43.678,43.678,0,0,1,18.5,5.21l0,.006a39.532,39.532,0,0,1-4.713,3.817c-1.05.738-1.928,1.351-2.86,1.925-.465.288-.942.567-1.365.814l-.033.018c-.212.123-.451.261-.68.4l-.2.123-.02.01c-.573.339-1.224.725-1.8,1.149l-.014.012-.012.008a.365.365,0,0,1-.031.026c-.069.059-.136.119-.2.178l-.026.024L6.5,13.75c-.192.18-.382.365-.563.557a12.922,12.922,0,0,0-1.064,1.275,23.492,23.492,0,0,0-3.119,6.093.912.912,0,0,1-.865.637A.847.847,0,0,1,.664,22.284Z" transform="translate(15.432 36.428)" fill="#0eaa92"/>
      <path id="Union_44" data-name="Union 44" d="M.664,41.712l-.012,0A.9.9,0,0,1,.03,40.615l.01-.031c.135-.386.279-.777.423-1.155A41.54,41.54,0,0,1,5.124,30.67l.008-.013a11.73,11.73,0,0,0,1.156-1.9,4.425,4.425,0,0,0,.307-2.1l0-.017c-.037-.62-.082-1.249-.123-1.856-.065-.941-.135-1.91-.18-2.869-.084-1.73-.119-3.137-.113-4.431A24.617,24.617,0,0,1,6.385,14V14a9.345,9.345,0,0,1,.46-1.667c.109-.313.211-.608.295-.912a34.376,34.376,0,0,0,.771-3.792c.182-1.157.337-2.382.479-3.748.019-.17.029-.342.043-.522a9.481,9.481,0,0,1,.125-1.11l0-.016A5.379,5.379,0,0,1,9.35.432L9.365.407A.878.878,0,0,1,10.108,0a.948.948,0,0,1,.828.485.828.828,0,0,1-.049.863,5.174,5.174,0,0,0-.38.708c-.033.086-.127.468-.176.677-.025.1-.049.2-.068.271l0,.067c-.008.094-.014.187-.024.278-.055.589-.119,1.184-.187,1.767-.176,1.509-.366,2.824-.581,4.025A25.718,25.718,0,0,1,8.6,12.759l0,.006c-.047.143-.1.282-.151.417a5.464,5.464,0,0,0-.225.685c-.037.157-.067.325-.1.548,0,.006,0,.013,0,.016l0,.015c0,.025-.006.047-.008.07-.006.055-.013.112-.019.169-.012.11-.022.223-.033.329-.09,1.227-.121,2.475-.088,3.708v0c.021,1.37.078,2.813.18,4.548.045.761.1,1.534.151,2.292q.012.156.024.312a9.2,9.2,0,0,1-.022,2.38,9,9,0,0,1-1.751,3.487c-.173.248-.337.482-.495.72A39.017,39.017,0,0,0,1.75,41.108a.911.911,0,0,1-.863.633A.9.9,0,0,1,.664,41.712Z" transform="translate(0 8.988)" fill="#0eaa92"/>
      <path id="Union_43" data-name="Union 43" d="M6.008,13.238a.844.844,0,0,1,.012-.87A10.137,10.137,0,0,0,7.385,7.728a10.179,10.179,0,0,0-.707-4.273,3.539,3.539,0,0,0-.954-1.488l-.016-.01A.666.666,0,0,0,5.274,1.8a.68.68,0,0,0-.473.192L4.791,2a3.124,3.124,0,0,0-.717,1.755l-.01.048c-.184.929-.353,1.69-.53,2.4a17.733,17.733,0,0,1-1.479,4.073h.03l-.416.658a.863.863,0,0,1-.742.418A.95.95,0,0,1,.1,10.866.834.834,0,0,1,.14,10,16.9,16.9,0,0,0,2.077,4.58c.05-.226.1-.465.138-.692a9.393,9.393,0,0,1,.542-2.026A2.935,2.935,0,0,1,4.793.048,2.453,2.453,0,0,1,5.28,0C6.973,0,7.96,1.739,8.49,3.2a12.055,12.055,0,0,1-.925,10.076.848.848,0,0,1-.746.438A.952.952,0,0,1,6.008,13.238Z" transform="translate(9.059)" fill="#0eaa92"/>
    </g>
    <path id="Path_20041" data-name="Path 20041" d="M206.208,246.674a6.254,6.254,0,0,1-1.754-.127,3.045,3.045,0,0,1-2.3-1.4,1.85,1.85,0,0,1,.535-2.38,9.68,9.68,0,0,1,4.047-1.337c2.179-.1,2.807,1.341,2.87,1.845a2.88,2.88,0,0,1-.947,2.8,3.545,3.545,0,0,1-1.408.451c-.345.058-.694.112-1.044.15" transform="translate(-145.019 -190.404)" fill="#fff"/>
    <path id="Union_46" data-name="Union 46" d="M3.3,6.9a5.63,5.63,0,0,1-1.447-.442A3.161,3.161,0,0,1,.014,4.01l0-.017A2.759,2.759,0,0,1,1.167,1.48l.01-.006A7.492,7.492,0,0,1,3.252.517,8.994,8.994,0,0,1,5.952,0,3.733,3.733,0,0,1,8.245.7,3.2,3.2,0,0,1,9.3,2.075l.008.024a3.694,3.694,0,0,1,.141,1.806A3.3,3.3,0,0,1,8.157,6.251l-.016.012a3.645,3.645,0,0,1-1.448.548c-.441.083-.9.152-1.378.209a1.131,1.131,0,0,1-.128.012c-.144.011-.289.015-.434.015A7.2,7.2,0,0,1,3.3,6.9Zm.1-4.547-.005,0a4.047,4.047,0,0,0-1.3.66A.973.973,0,0,0,1.858,4.1a1.709,1.709,0,0,0,1.075.872,5.458,5.458,0,0,0,1.76.293c.13,0,.26,0,.389-.015a.411.411,0,0,1,.053,0,13.291,13.291,0,0,0,1.315-.21l.026,0a1.6,1.6,0,0,0,.786-.351A2.068,2.068,0,0,0,7.7,3.167L7.7,2.982l0,0c0-.03-.008-.053-.01-.067a.069.069,0,0,0,0-.018.775.775,0,0,0-.024-.1c0-.015-.008-.024-.013-.037s-.012-.035-.016-.053l-.008-.016L7.563,2.56a1.4,1.4,0,0,0-.582-.548,2.53,2.53,0,0,0-1.051-.229,2.311,2.311,0,0,0-.376.029H5.547A9.761,9.761,0,0,0,3.406,2.354Z" transform="translate(56.023 50.124)" fill="#0eaa92"/>
    <path id="Path_20043" data-name="Path 20043" d="M214.891,205.341l.931-.432a4.788,4.788,0,0,0,1.9-1.288,2.743,2.743,0,0,0-.04-3.163,2.648,2.648,0,0,0-2.792-1.238,10.128,10.128,0,0,0-2.348,1.4,5.109,5.109,0,0,0-1.591,1.983,2.27,2.27,0,0,0,.266,2.3,2.5,2.5,0,0,0,2.29.812,9.27,9.27,0,0,0,1.387-.367" transform="translate(-152.137 -156.13)" fill="#fff"/>
    <path id="Union_50" data-name="Union 50" d="M.554,7.058C-.7,5.281.352,3.138,1.953,1.8A12.462,12.462,0,0,1,3.78.562,3.773,3.773,0,0,1,5.631,0a2.873,2.873,0,0,1,.479.041,3.658,3.658,0,0,1,2.3,1.45,3.913,3.913,0,0,1,.819,2.579A3.4,3.4,0,0,1,7.94,6.543,9.386,9.386,0,0,1,5.908,7.667l-.438.2-.021.011a.838.838,0,0,1-.13.055,5.526,5.526,0,0,1-2.057.423A3.153,3.153,0,0,1,.554,7.058Zm4.89-5.271a2.8,2.8,0,0,0-1.051.487l-.145.09-.006,0a8.552,8.552,0,0,0-1.367,1A3.308,3.308,0,0,0,1.831,4.953V4.96a1.3,1.3,0,0,0,.4,1.3,1.442,1.442,0,0,0,.6.275,2.363,2.363,0,0,0,.68.039,4.917,4.917,0,0,0,.672-.159l.015,0c.124-.032.248-.069.371-.107l.063-.022.1-.033.44-.193a7.492,7.492,0,0,0,1.651-.888A1.663,1.663,0,0,0,7.444,3.69l0-.01A2.129,2.129,0,0,0,5.6,1.778,1.5,1.5,0,0,0,5.444,1.788Z" transform="translate(57.722 42.125)" fill="#0eaa92"/>
    <path id="Path_20045" data-name="Path 20045" d="M215.995,160.145l.845-.773a5.333,5.333,0,0,0,1.586-2.008,3.058,3.058,0,0,0-1.1-3.351,2.955,2.955,0,0,0-3.386-.38,11.275,11.275,0,0,0-2.029,2.275,5.7,5.7,0,0,0-1.027,2.644,2.531,2.531,0,0,0,1.054,2.354,2.783,2.783,0,0,0,2.709.094,10.326,10.326,0,0,0,1.352-.855" transform="translate(-152.226 -118.925)" fill="#fff"/>
    <path id="Union_49" data-name="Union 49" d="M1.146,9.054l-.008-.006A3.317,3.317,0,0,1,.012,6.157a6.383,6.383,0,0,1,1-2.862l0,0A13.359,13.359,0,0,1,2.541,1.353,3.732,3.732,0,0,1,4.737.039,3.749,3.749,0,0,1,5.267,0a4.357,4.357,0,0,1,4.1,3.247,3.689,3.689,0,0,1-.534,2.921A10.366,10.366,0,0,1,7.054,8.044c-.126.114-.259.229-.387.346a.671.671,0,0,1-.051.047l-.022.021-.034.026a7.3,7.3,0,0,1-.823.567,5.3,5.3,0,0,1-1.2.592,3.479,3.479,0,0,1-1.167.2A3.522,3.522,0,0,1,1.146,9.054ZM4.65,1.9l-.308.189c-.069.057-.141.125-.226.208-.2.193-.4.413-.66.715l0,0A9.424,9.424,0,0,0,2.3,4.636,3.5,3.5,0,0,0,1.79,6.705a1.567,1.567,0,0,0,.839,1.208,1.529,1.529,0,0,0,.676.145,2.27,2.27,0,0,0,.959-.222,6.426,6.426,0,0,0,.687-.405l.008-.006c.12-.075.236-.154.35-.234a.292.292,0,0,0,.039-.028l.057-.039,0,0c.155-.14.315-.281.473-.417a7.882,7.882,0,0,0,1.48-1.54A1.946,1.946,0,0,0,7.53,3.328l0-.006A2.642,2.642,0,0,0,5.283,1.774,1.575,1.575,0,0,0,4.65,1.9Z" transform="translate(57.764 33.438)" fill="#0eaa92"/>
  </g>
</svg>
