<svg xmlns="http://www.w3.org/2000/svg" xmlns:xlink="http://www.w3.org/1999/xlink" width="185.938" height="170.179" viewBox="0 0 185.938 170.179">
  <defs>
    <clipPath id="clip-path">
      <rect id="Rectangle_27144" data-name="Rectangle 27144" width="185.938" height="170.179" fill="none"/>
    </clipPath>
  </defs>
  <g id="Group_26571" data-name="Group 26571" transform="translate(-94.531 -141.479)">
    <g id="Group_26570" data-name="Group 26570" transform="translate(94.531 141.479)">
      <g id="Group_26570-2" data-name="Group 26570" clip-path="url(#clip-path)">
        <path id="Path_23342" data-name="Path 23342" d="M106.087,87.6a9.618,9.618,0,0,0,12.53,0c9.609-8.125,31.959-29.2,31.959-49.387a38.217,38.217,0,0,0-76.435,0c0,20.188,22.338,41.258,31.946,49.383" transform="translate(-16.764 0)" fill="#fff"/>
        <path id="Path_23343" data-name="Path 23343" d="M39.156,142.043a3.478,3.478,0,0,0-3.438-4.113h-9.23l1.665-9.444a3.466,3.466,0,0,0-3.434-4.105H19.824a3.857,3.857,0,0,0-3.749,3.156l-2.026,11.491C7.423,141.318,2.067,146.949.5,153.414a15.378,15.378,0,0,0,2.556,13.259,14.562,14.562,0,0,0,11.752,5.471H30.652a3.859,3.859,0,0,0,3.753-3.161l.864-4.9a3.468,3.468,0,0,0-3.441-4.094H15.988a3.664,3.664,0,0,1-2.92-1.238,3.889,3.889,0,0,1-.731-3.239,2.732,2.732,0,0,1,.13-.523c.016-.044.032-.089.045-.134A6.848,6.848,0,0,1,18.7,150.1H34.539a3.864,3.864,0,0,0,3.754-3.161Z" transform="translate(0 -28.124)" fill="#fff"/>
        <path id="Path_23344" data-name="Path 23344" d="M69.4,172.143a3.852,3.852,0,0,0,3.748-3.156l2.429-13.781,10.044-8.338-1.731,9.817c-.85,4.821-.221,8.684,1.867,11.481a9.774,9.774,0,0,0,6.888,3.846,3.867,3.867,0,0,0,4.181-3.137L97.7,163.9a3.446,3.446,0,0,0-1.851-3.728,7.839,7.839,0,0,1,.114-2.536l3.982-22.583a3.466,3.466,0,0,0-3.435-4.105H88a3.794,3.794,0,0,0-2.416.884l-6.891,5.719,1.6-9.063a3.465,3.465,0,0,0-3.434-4.105h-4.9a3.852,3.852,0,0,0-3.748,3.155l-1.825,10.349H62.4a3.857,3.857,0,0,0-3.749,3.156l-.862,4.894a3.467,3.467,0,0,0,3.434,4.106h2.413l-6.6,5.479A3.829,3.829,0,0,0,55.7,157.8l-1.2,6.83a3.456,3.456,0,0,0,1.658,3.63,3.649,3.649,0,0,0,4.194-.409l.885-.735-.163.923a3.468,3.468,0,0,0,3.435,4.105Z" transform="translate(-12.309 -28.124)" fill="#fff"/>
        <path id="Path_23345" data-name="Path 23345" d="M207.229,172.13c9.233,0,18.064-7.481,19.685-16.678a15.251,15.251,0,0,0-2.442-11.655,14.024,14.024,0,0,0-4.4-3.966l3.534-2.721a3.829,3.829,0,0,0,1.415-2.334l1.118-6.342a3.471,3.471,0,0,0-3.438-4.114H199.635a3.859,3.859,0,0,0-3.753,3.161l-.864,4.9a3.46,3.46,0,0,0,3.441,4.1H205.4l-2.124,1.636q-.065.05-.128.1l-.119.087a2.766,2.766,0,0,0-.31.259,2.722,2.722,0,0,0-.849,1.758c-.014.058-.026.112-.035.159L201.565,142a2.7,2.7,0,0,0-.033.275l-.573,3.245a12.836,12.836,0,0,0-1.942-.145,15.969,15.969,0,0,0-15.186,12.879,11.779,11.779,0,0,0,2.441,9.8,11.44,11.44,0,0,0,8.424,4.021,2.7,2.7,0,0,0,.57.06Zm7.659-18.047a3.333,3.333,0,0,1-.063.416,7,7,0,0,1-4.461,5.12c.029-.139.055-.278.08-.416a13.8,13.8,0,0,0,.126-3.835,11.517,11.517,0,0,0-2.111-5.389H210.8a4.267,4.267,0,0,1,3.2,1.274,3.6,3.6,0,0,1,.885,2.831M195.905,159.2a2.154,2.154,0,0,1,1.935-1.675c.331,0,.431.128.464.17a.75.75,0,0,1,.065.553h0a2.132,2.132,0,0,1-1.916,1.658.644.644,0,0,1-.471-.153.746.746,0,0,1-.077-.553" transform="translate(-41.519 -28.11)" fill="#fff"/>
        <path id="Path_23346" data-name="Path 23346" d="M155.371,124.382a3.857,3.857,0,0,0-3.748,3.156l-1.192,6.761a3.461,3.461,0,0,0-3.491-3.356H134.8a3.861,3.861,0,0,0-3.754,3.161l-.864,4.9a3.46,3.46,0,0,0,3.441,4.094h3.091l-.231,1.314h-2.55c-7.614,0-14.871,6.024-16.178,13.429a12.129,12.129,0,0,0,2.534,10.084,12.384,12.384,0,0,0,9.7,4.311,17.1,17.1,0,0,0,15.857-11.984l-1.372,7.783a3.467,3.467,0,0,0,3.434,4.105h4.9a3.857,3.857,0,0,0,3.748-3.157l2.189-12.416h2.741a3.812,3.812,0,0,0,3.754-3.161l.861-4.883a3.464,3.464,0,0,0-3.438-4.112h-1.775l2.808-15.927a3.467,3.467,0,0,0-3.435-4.1Zm-25.537,34.413a3.059,3.059,0,0,1,2.926-2.224h1.583l-.224,1.273a3.078,3.078,0,0,1-2.945,2.24,1.53,1.53,0,0,1-1.159-.436,1,1,0,0,1-.18-.853" transform="translate(-26.579 -28.124)" fill="#fff"/>
        <path id="Path_23347" data-name="Path 23347" d="M34.665,207.269c.264-.423.467-.792.611-1.064a2.752,2.752,0,0,0,.2-2.04,2.733,2.733,0,0,0-.247-2.956q-.08-.106-.165-.211c.069-.087.135-.17.2-.251a2.742,2.742,0,0,0-.882-4.058l-1.615-.878a2.726,2.726,0,0,0-3.319.529l-1.265-.611a2.761,2.761,0,0,0-3.188.6l-1.079-.53a2.75,2.75,0,0,0-3.565,1.064,8.749,8.749,0,0,1-1.413,1.835,2.734,2.734,0,0,0-2.354-1.358h-.959a2.748,2.748,0,0,0-2.557-1.751H11.326a2.728,2.728,0,0,0-1.713.6,2.727,2.727,0,0,0-1.087-.224H3.693A2.745,2.745,0,0,0,.95,198.706v12.8a2.746,2.746,0,0,0,2.743,2.742H5.346a2.728,2.728,0,0,0,1.4-.386,2.739,2.739,0,0,0,3.341-.116l.047-.039a2.737,2.737,0,0,0,1.638.542h1.751A4.426,4.426,0,0,0,17.98,211.6l.514,1.105a2.748,2.748,0,0,0,3.178,1.5,13.537,13.537,0,0,0,5.161-2.442,13.443,13.443,0,0,0,5.134,2.447,2.743,2.743,0,0,0,3.2-1.466l.854-1.794a2.739,2.739,0,0,0-1.354-3.679m-15.983.158c.012-.187.022-.383.032-.588.11.139.217.275.311.4a2.725,2.725,0,0,0-.343.188" transform="translate(-0.215 -44.196)" fill="#fff"/>
        <path id="Path_23348" data-name="Path 23348" d="M57.729,196.546H56.147a2.741,2.741,0,0,0-2.514,1.648l-4.858,11.173a2.741,2.741,0,0,0,2.513,3.838h1.583a2.741,2.741,0,0,0,2.514-1.648l4.858-11.173a2.741,2.741,0,0,0-2.513-3.839" transform="translate(-10.976 -44.441)" fill="#fff"/>
        <path id="Path_23349" data-name="Path 23349" d="M150.574,204.976a18.8,18.8,0,0,0,.317-1.963,2.754,2.754,0,0,0-2.045-2.959l-1.2-.307a2.744,2.744,0,0,0-1.07-1.819l-1.128-.85a2.82,2.82,0,0,0-2.246-.491,12.371,12.371,0,0,1-2.6.188c-.659,0-1.079-.012-1.456-.033a2.743,2.743,0,0,0-2.966,2.8l.043,1.792a2.731,2.731,0,0,0,.232,1.04,6.965,6.965,0,0,0-2.3,5.009c-.032-.018-.059-.043-.091-.059h0a7.025,7.025,0,0,1-3.325-3.024,10.773,10.773,0,0,1-.953-4.263V198.34a2.745,2.745,0,0,0-2.743-2.742h-1.919a2.745,2.745,0,0,0-2.743,2.742v1.751a9.352,9.352,0,0,1-.932,4.061,6.885,6.885,0,0,1-3.191,3.1,2.707,2.707,0,0,0-.73-1.121,2.737,2.737,0,0,0,.935-2.061v-1.6a2.733,2.733,0,0,0-.7-1.832A2.743,2.743,0,0,0,116.7,196.8l-1.569-.84a2.733,2.733,0,0,0-3.515.81h-.336A2.741,2.741,0,0,0,109,195.543h-1.764a2.743,2.743,0,0,0-2.288,1.232h-1.367a2.738,2.738,0,0,0-2.7,2.356,2.756,2.756,0,0,0-1.274-1.01,2.745,2.745,0,0,0-2.737-2.578H95.139a2.73,2.73,0,0,0-1.211.282,2.734,2.734,0,0,0-1.212-.282H90.994a2.736,2.736,0,0,0-1.052.209,2.618,2.618,0,0,0-.259-.04l-1.71-.18a2.766,2.766,0,0,0-3.026,2.326,8.308,8.308,0,0,1-1.406,3.865c-.056-.04-.11-.083-.169-.118a2.747,2.747,0,0,0,.261-1.162V198.76a2.745,2.745,0,0,0-2.743-2.742H69.841A2.745,2.745,0,0,0,67.1,198.76v1.722a2.731,2.731,0,0,0,.241,1.124,2.743,2.743,0,0,0-1.306,2.335v1.723a2.746,2.746,0,0,0,2.743,2.742h.343a2.745,2.745,0,0,0-.326,1.74l.252,1.738a2.757,2.757,0,0,0,2.713,2.347h2.689c4.578,0,4.578-3.508,4.578-4.661v-1.165H81.94a2.728,2.728,0,0,0,1.905-.777,2.843,2.843,0,0,0,.259.344v3.53a2.745,2.745,0,0,0,2.743,2.741h1.7a2.75,2.75,0,0,0,.673-.083,2.781,2.781,0,0,0,2.288-.39,13.633,13.633,0,0,0,2.449-2.163,13.981,13.981,0,0,0,2.206,2.108,2.741,2.741,0,0,0,3.686-.344l1.221-1.347a2.734,2.734,0,0,0,.695-1.9,2.743,2.743,0,0,0,1.268.362,3.781,3.781,0,0,0,4.061,3.489h6.527a4.116,4.116,0,0,0,3.813-2l.864,1.147a2.744,2.744,0,0,0,3.551.732,15.177,15.177,0,0,0,4.236-3.506,14.134,14.134,0,0,0,4.311,3.543,2.756,2.756,0,0,0,3.507-.846l1.188-1.678a2.691,2.691,0,0,0,.24-.43,4.3,4.3,0,0,0,3.371,1.611,4.467,4.467,0,0,0,1.914-.4c.06.049.121.1.184.14l1.583,1.092a2.744,2.744,0,0,0,3.313-.151,13.872,13.872,0,0,0,1.6-1.566,2.743,2.743,0,0,0,3.225-1.189l1.009-1.682a2.74,2.74,0,0,0-.555-3.481c-.147-.127-.278-.238-.4-.34" transform="translate(-14.931 -44.208)" fill="#fff"/>
        <path id="Path_23350" data-name="Path 23350" d="M190.14,197.859c-.76.035-1.234.055-1.707.07a2.746,2.746,0,0,0-2.517-1.655h-1.849a2.751,2.751,0,0,0-1.942.807,2.72,2.72,0,0,0-.6.909c-.6-.005-1.13-.015-2.057-.036a2.743,2.743,0,0,0-2.749,2.742v1.764a2.717,2.717,0,0,0,.467,1.524l.009,1.27a2.7,2.7,0,0,0,.362,1.334,4.924,4.924,0,0,0-.53,2.174c0,2.511,2.025,5.053,5.894,5.053A5.911,5.911,0,0,0,187.3,212.3q.186.122.375.252a2.743,2.743,0,0,0,4.007-1.054l.881-1.791a2.746,2.746,0,0,0-.519-3.151,2.746,2.746,0,0,0,.437-1.514l-.008-1.053a2.743,2.743,0,0,0,.54-1.643V200.6a2.743,2.743,0,0,0-.841-1.976,2.778,2.778,0,0,0-2.032-.764" transform="translate(-39.957 -44.38)" fill="#fff"/>
        <path id="Path_23351" data-name="Path 23351" d="M211.682,201.808l.031-.22a2.741,2.741,0,0,0-2.537-3.11,2.739,2.739,0,0,0-2.187-1.985l-1.808-.306a2.719,2.719,0,0,0-3.136,2.054A2.743,2.743,0,0,0,199,200.465l-.323,1.754a2.787,2.787,0,0,0-.035.71,2.707,2.707,0,0,0-.2.639l-.336,1.805a2.736,2.736,0,0,0,1.752,3.078c.223.081.435.149.644.206.542,3.121,3.172,5.073,7.007,5.073,5.451,0,7.393-3.326,7.393-6.439a8.245,8.245,0,0,0-1.145-4.118,2.748,2.748,0,0,0-2.077-1.366" transform="translate(-44.784 -44.35)" fill="#fff"/>
        <path id="Path_23352" data-name="Path 23352" d="M235.769,199.059a2.758,2.758,0,0,0-2.733-2.513h-1.891a2.731,2.731,0,0,0-2.358,1.345,2.744,2.744,0,0,0-1.894-1.1l-1.86-.214a2.732,2.732,0,0,0-2.962,2.186,25.611,25.611,0,0,0-.532,5.121,15.924,15.924,0,0,0,.751,5.158,2.729,2.729,0,0,0,2.478,1.888,2.729,2.729,0,0,0,.83,1.259l1.525,1.3a2.746,2.746,0,0,0,1.781.656,2.778,2.778,0,0,0,1.2-.278c5.218-2.551,5.921-6.451,5.921-9.929,0-1.747-.171-3.784-.262-4.879" transform="translate(-50.093 -44.441)" fill="#fff"/>
        <path id="Path_23353" data-name="Path 23353" d="M142.535,41.537A26.83,26.83,0,1,1,115.722,14.69a26.876,26.876,0,0,1,26.813,26.847" transform="translate(-20.096 -3.322)" fill="#fff"/>
        <path id="Path_23354" data-name="Path 23354" d="M136.208,58.476h-4.123a.753.753,0,0,1-.742-.885l3.212-18.222a.754.754,0,0,1,.744-.623h4.123a.754.754,0,0,1,.743.885L136.95,57.853a.752.752,0,0,1-.742.623" transform="translate(-29.695 -8.761)" fill="#f48521"/>
        <path id="Path_23355" data-name="Path 23355" d="M128.085,27.32l-2.493,14.143h-5.652l1.5-8.491a.754.754,0,0,0-.742-.885h-1.886a.754.754,0,0,1-.742-.885l.731-4.143a.754.754,0,0,1,.743-.623h7.8a.754.754,0,0,1,.742.885" transform="translate(-26.694 -5.977)" fill="#f48521"/>
        <path id="Path_23356" data-name="Path 23356" d="M122.519,45.429a.755.755,0,0,1-.742-.661,8.964,8.964,0,0,0-9.245-7.662A13.918,13.918,0,0,0,99.393,48.264c-1.077,6.157,3.045,11.17,9.2,11.17a13.9,13.9,0,0,0,12.065-7.921.747.747,0,0,1,.669-.432l13.683-.037a.753.753,0,0,0,.741-.625l.721-4.143a.753.753,0,0,0-.744-.883Zm-6.45,2.835a6.852,6.852,0,0,1-6.477,5.505,4.484,4.484,0,0,1-4.534-5.505,6.853,6.853,0,0,1,6.476-5.505,4.5,4.5,0,0,1,4.535,5.505" transform="translate(-22.435 -8.39)" fill="#129b8e"/>
        <path id="Path_23357" data-name="Path 23357" d="M112.608,53.4a2.2,2.2,0,0,1-2.217-2.693,3.356,3.356,0,0,1,3.167-2.692,2.2,2.2,0,0,1,2.218,2.692,3.357,3.357,0,0,1-3.168,2.693" transform="translate(-24.951 -10.856)" fill="#f48521"/>
        <path id="Path_23358" data-name="Path 23358" d="M113.16,3.543A35.472,35.472,0,0,0,77.685,39.018c0,18.937,21.406,39.2,30.979,47.292a6.909,6.909,0,0,0,8.985,0c9.573-8.095,30.987-28.355,30.987-47.292A35.487,35.487,0,0,0,113.16,3.543m.031,62.352a26.862,26.862,0,1,1,26.815-26.877A26.891,26.891,0,0,1,113.191,65.9" transform="translate(-17.565 -0.801)" fill="#f48521"/>
        <path id="Path_23359" data-name="Path 23359" d="M27.247,145.013H20.571l2.856-16.2a1.108,1.108,0,0,1,1.047-.891h4.9a.727.727,0,0,1,.733.891Z" transform="translate(-4.651 -28.925)" fill="#ef6791"/>
        <path id="Path_23360" data-name="Path 23360" d="M72.12,170.2h-4.9a.726.726,0,0,1-.733-.89l7.141-40.5a1.107,1.107,0,0,1,1.047-.89h4.9a.726.726,0,0,1,.733.89l-7.141,40.5a1.108,1.108,0,0,1-1.047.89" transform="translate(-15.031 -28.925)" fill="#129b8e"/>
        <path id="Path_23361" data-name="Path 23361" d="M70.45,145.375l-1.176,6.672H62.989a.727.727,0,0,1-.734-.89l.863-4.893a1.108,1.108,0,0,1,1.047-.89Z" transform="translate(-14.073 -32.871)" fill="#5c5c5c"/>
        <path id="Path_23362" data-name="Path 23362" d="M37.38,146.327l-.864,4.9a1.128,1.128,0,0,1-1.052.9H19.622a9.577,9.577,0,0,0-8.812,6.7H4.091c1.848-7.63,9.551-13.391,17.2-13.391H36.643a.737.737,0,0,1,.737.895" transform="translate(-0.925 -32.884)" fill="#5c5c5c"/>
        <path id="Path_23363" data-name="Path 23363" d="M33.368,172.281l-.864,4.9a1.113,1.113,0,0,1-1.052.9H15.61c-8.257,0-13.682-6.987-11.645-15.338h6.72a5.383,5.383,0,0,0-.25.974,6.289,6.289,0,0,0,6.352,7.692H32.628a.726.726,0,0,1,.74.879" transform="translate(-0.799 -36.796)" fill="#ef6791"/>
        <path id="Path_23364" data-name="Path 23364" d="M95.315,165.3c-1.872-.582-1.52-3.907-1.253-5.423L98.044,137.3a.726.726,0,0,0-.733-.89H88.8a1.057,1.057,0,0,0-.666.252L59.583,160.354a1.092,1.092,0,0,0-.382.638L58,167.819c-.139.787.737,1.187,1.4.638L90.419,142.7,87.39,159.879c-1.466,8.312,2.313,11.665,6.364,12.126a1.109,1.109,0,0,0,1.169-.888l.878-4.975a.714.714,0,0,0-.484-.84" transform="translate(-13.111 -30.843)" fill="#5c5c5c"/>
        <path id="Path_23365" data-name="Path 23365" d="M161.466,170.2h-4.9a.726.726,0,0,1-.733-.89l7.141-40.5a1.107,1.107,0,0,1,1.047-.89h4.9a.726.726,0,0,1,.733.89l-7.141,40.5a1.108,1.108,0,0,1-1.047.89" transform="translate(-35.234 -28.925)" fill="#f48521"/>
        <path id="Path_23366" data-name="Path 23366" d="M217.821,143.472l7.484-5.762a1.1,1.1,0,0,0,.415-.659l.1-.566h-8.964l-4.814,3.705-3.688,2.842,0,.015-.323.236-.006.031-.055.314c-.005.032-.024.047-.029.078l-.266,1.508.013.015L207,149.108a.72.72,0,0,0,.74.879h6.469c4.034,0,7.141,2.952,6.822,6.987a6.28,6.28,0,0,1-.1.753,9.66,9.66,0,0,1-9.121,7.74H199.844l-1.176,6.672h11.963c7.96,0,15.585-6.469,16.985-14.413,1.276-7.237-3.023-13.219-9.8-14.255" transform="translate(-44.921 -30.861)" fill="#5c5c5c"/>
        <path id="Path_23367" data-name="Path 23367" d="M210.744,145.305l.005-.031-.036.031Z" transform="translate(-47.645 -32.848)" fill="#5c5c5c"/>
        <path id="Path_23368" data-name="Path 23368" d="M227.551,128.759l-1.018,5.777H202.575a.72.72,0,0,1-.74-.879l.864-4.9a1.113,1.113,0,0,1,1.052-.895h23.063a.73.73,0,0,1,.737.895" transform="translate(-45.634 -28.911)" fill="#0a98c4"/>
        <path id="Path_23369" data-name="Path 23369" d="M208.652,162.666a8.453,8.453,0,0,0-4.724-6.688,9.392,9.392,0,0,0-4.109-.911,13.233,13.233,0,0,0-12.485,10.613c-1.029,5.841,2.886,10.613,8.742,10.613a12.13,12.13,0,0,0,6.311-1.868,13.654,13.654,0,0,0,4.67-4.757.267.267,0,0,0,.048-.094,11.788,11.788,0,0,0,1.44-3.893,10.886,10.886,0,0,0,.108-3.014m-11.4,6.939a3.207,3.207,0,0,1-3.249-3.925,4.909,4.909,0,0,1,4.636-3.941,3.257,3.257,0,0,1,2.626,1.225,3.394,3.394,0,0,1,.6,2.716,4.887,4.887,0,0,1-4.617,3.925" transform="translate(-42.321 -35.062)" fill="#0a98c4"/>
        <path id="Path_23370" data-name="Path 23370" d="M163.469,149.874H146.262l1.2-6.8,1.019-5.777a.73.73,0,0,0-.738-.895H135.607a1.112,1.112,0,0,0-1.052.895l-.864,4.9a.72.72,0,0,0,.74.879h6.359l-1.2,6.8h-4.852a14.128,14.128,0,0,0-13.476,11.162c-1.088,6.17,3.194,11.179,9.537,11.179a14.135,14.135,0,0,0,13.494-11.179l.488-2.763.3-1.727h17.207a1.1,1.1,0,0,0,1.053-.895l.861-4.882a.723.723,0,0,0-.737-.895m-25.36,8.4-.488,2.763a5.83,5.83,0,0,1-5.646,4.506,3.827,3.827,0,0,1-4.041-4.506,5.824,5.824,0,0,1,5.628-4.49h4.851Z" transform="translate(-27.381 -30.842)" fill="#5c5c5c"/>
        <path id="Path_23371" data-name="Path 23371" d="M4.494,199.543H9.326v1.583c-.532,1.387-.813,2.1-1.275,3.053A4.7,4.7,0,0,1,9.4,207.456c0,1.471-.77,2.172-1.848,2.172H6.553l-.281-1.666h.84c.435,0,.546-.42.546-.84A3.668,3.668,0,0,0,6.371,204.4a28.143,28.143,0,0,0,1.247-3.277H6.147v11.218H4.494Zm8.11,4.762h4.257a34.939,34.939,0,0,1-.519,6.834,1.786,1.786,0,0,1-2.016,1.2H12.575l-.434-1.709H13.99a.692.692,0,0,0,.673-.322,17.74,17.74,0,0,0,.462-4.441H12.547a8.528,8.528,0,0,1-3.4,6.6l-1.3-1.4a6.787,6.787,0,0,0,3.038-6.078v-2.423H9.438v-1.653h2.689v-1.751h1.737v1.751h3.516v1.653H12.6Z" transform="translate(-1.016 -45.033)" fill="#5c5c5c"/>
        <path id="Path_23372" data-name="Path 23372" d="M25.748,210.542c2.451-.378,5.868-1.3,5.812-5.994H33.31c-.042,4.425,2.871,5.532,5.84,6.022l-.854,1.792c-3.88-1.036-5.168-2.689-5.841-4.229-.981,2.408-3.5,3.6-5.868,4.215Zm2.59-5.9a15.5,15.5,0,0,0-2.185-2.856,13.351,13.351,0,0,0,2.157-2.731l1.625.8a16.683,16.683,0,0,1-1.625,1.918,12.987,12.987,0,0,1,1.625,1.864Zm-.139,3.908a15.363,15.363,0,0,0-1.807-2.718l1.443-.9a11.866,11.866,0,0,1,1.877,2.647Zm4.523-4.034a14.933,14.933,0,0,0-2.367-2.758A17.949,17.949,0,0,0,32.6,199l1.624.785a17.307,17.307,0,0,1-1.624,1.919,17.039,17.039,0,0,1,1.778,1.82Zm4.425.252a14.457,14.457,0,0,0-2.353-2.927,16.264,16.264,0,0,0,2.255-2.829l1.624.882a17.089,17.089,0,0,1-1.723,1.891,17.985,17.985,0,0,1,1.709,1.891Zm-2.086,2.788a12.242,12.242,0,0,0,1.737-2.6l1.653.784a13.649,13.649,0,0,1-1.9,2.745Z" transform="translate(-5.822 -44.996)" fill="#5c5c5c"/>
        <path id="Path_23373" data-name="Path 23373" d="M58.531,200.089l-4.86,11.176H52.088l4.86-11.176Z" transform="translate(-11.778 -45.242)" fill="#5c5c5c"/>
        <path id="Path_23374" data-name="Path 23374" d="M70.641,199.709H81.69v1.681a21.727,21.727,0,0,1-4.608,2.717v.783h5.659v1.723H77.083v3.907c0,1.512-.139,1.918-1.835,1.918H72.559l-.252-1.737h2.241c.588,0,.7-.014.7-.659v-3.431H69.576V204.89h5.672v-2.114h1.107a14.758,14.758,0,0,0,2.381-1.344H70.641Z" transform="translate(-15.732 -45.156)" fill="#5c5c5c"/>
        <path id="Path_23375" data-name="Path 23375" d="M92.516,205.963a7.507,7.507,0,0,1-.77.909l-.644-2.3a10.849,10.849,0,0,0,2.226-5.518l1.737.182a15.768,15.768,0,0,1-.854,3.375v9.691h-1.7Zm6.316,2.856a10.527,10.527,0,0,1-3.221,3.5l-1.162-1.387a8.959,8.959,0,0,0,2.941-2.786Zm-2.171-9.733h1.723v2.4h2.423v-2.4h1.723v2.4h1.751v1.694H102.53v2.942h1.989v1.694H94.8v-1.694h1.863v-2.942H95.009v-1.694h1.652Zm1.723,7.031h2.423v-2.942H98.384Zm5.1,6.217a13.462,13.462,0,0,1-3.053-3.445l1.415-.8a12.237,12.237,0,0,0,2.857,2.9Z" transform="translate(-20.599 -45.009)" fill="#5c5c5c"/>
        <path id="Path_23376" data-name="Path 23376" d="M116.366,207.538c-1.275.546-2.017.8-2.647,1.023l-.783-1.625a28.707,28.707,0,0,0,5.153-2.059h-4.9v-1.6h4.65v-1.344h-3.656v-1.61h3.656v-1.233H119.6v1.233h2.9v1.316a18.578,18.578,0,0,0,1.946-2.451l1.569.84a15.991,15.991,0,0,1-2.773,3.25h3.082v1.6H121.2a31.1,31.1,0,0,1-3.067,1.82v.967a20.891,20.891,0,0,0,6.148-2.17l1.022,1.54a25.82,25.82,0,0,1-7.17,2.157v.882c0,.28.279.323.433.323h5.14c.63,0,.8-.238.882-1.864l1.695.434c-.266,2.843-.967,3.081-2.059,3.081H117.7c-.518,0-1.33-.126-1.33-1.064Zm3.236-5.6v1.344h1.078a15.969,15.969,0,0,0,1.526-1.344Z" transform="translate(-25.536 -45.017)" fill="#5c5c5c"/>
        <path id="Path_23377" data-name="Path 23377" d="M140.667,199.166h1.918v1.694a13.431,13.431,0,0,0,1.2,5.406,9.576,9.576,0,0,0,4.608,4.342l-1.19,1.681a11.212,11.212,0,0,1-5.588-7.016,11.152,11.152,0,0,1-5.587,7.03l-1.247-1.652a9.637,9.637,0,0,0,4.677-4.482,12.168,12.168,0,0,0,1.2-5.252Z" transform="translate(-30.476 -45.034)" fill="#5c5c5c"/>
        <path id="Path_23378" data-name="Path 23378" d="M163.058,211.13a9.755,9.755,0,0,0,2.773-3.347,10.508,10.508,0,0,0-2.549-1.247c-2.185,4.286-3.236,4.369-3.88,4.369-1.219,0-1.808-1.135-1.808-2.353a4.065,4.065,0,0,1,4.735-3.978c.672-1.583.755-1.764.98-2.353a26.374,26.374,0,0,1-3.642.14l-.042-1.792c.491.028.953.042,1.681.042a14.356,14.356,0,0,0,3.193-.252l1.134.854c-.615,1.456-.84,2.017-1.568,3.726a14.544,14.544,0,0,1,2.48,1.162,11.468,11.468,0,0,0,.518-2.759l1.806.462a13.787,13.787,0,0,1-.742,3.305,19.007,19.007,0,0,1,1.75,1.372l-1.008,1.681c-.518-.476-.854-.785-1.511-1.3a10.971,10.971,0,0,1-2.717,3.361Zm-3.838-2.577c0,.279.056.49.224.49.462,0,1.611-2.072,2.017-2.829a2.32,2.32,0,0,0-2.24,2.339" transform="translate(-35.634 -45.304)" fill="#5c5c5c"/>
        <path id="Path_23379" data-name="Path 23379" d="M180.723,204.257c1.624.028,1.681.028,4.173.028v-1.008c-2.17.014-2.422.014-4.636-.014V201.5c1.849.041,2.129.041,4.622.041l-.015-1.722h1.849v1.709c2.283-.043,2.535-.043,4.355-.126v1.751c-2.38.07-2.437.084-4.341.1l.013,1c1.891-.043,2.086-.043,3.782-.126l.013,1.751c-1.6.07-1.82.07-3.78.125l.013,1.542A16.23,16.23,0,0,1,190.9,209.3l-.882,1.792a14.265,14.265,0,0,0-3.263-1.737c-.015.868-.057,2.521-3.039,2.521-2.1,0-3.151-1.092-3.151-2.31,0-.6.28-2.367,3.543-2.367.378,0,.6.014.813.028l-.014-1.2c-2.059.029-2.507.029-4.174.015Zm3.221,4.551c-.266,0-1.638,0-1.638.785,0,.461.546.728,1.274.728,1.345,0,1.345-.546,1.345-1.443a6.226,6.226,0,0,0-.981-.07" transform="translate(-40.759 -45.181)" fill="#5c5c5c"/>
        <path id="Path_23380" data-name="Path 23380" d="M205.512,199.69l1.821.308-.462,2.143c.126,0,1.218.015,2.926-.125l-.251,1.806c-1.61.07-2.984.07-3.053.056l-.295,1.429c1.653-.028,1.891-.028,3.25-.125l-.239,1.862c-.685.028-1.525.056-2.647.056h-.742a6.293,6.293,0,0,0-.1,1.065c0,1.373,1.024,1.891,2.536,1.891.868,0,2.871-.168,2.871-2.017a4.157,4.157,0,0,0-.687-2.129l1.737-.574a5.4,5.4,0,0,1,.785,2.759c0,2.914-2.326,3.7-4.65,3.7-2.647,0-4.369-1.135-4.369-3.572a10.1,10.1,0,0,1,.084-1.162,7.683,7.683,0,0,1-2.423-.379l.337-1.806a8.387,8.387,0,0,0,2.436.392l.294-1.429a11.893,11.893,0,0,1-2.493-.323l.322-1.75a13.669,13.669,0,0,0,2.522.336Z" transform="translate(-45.585 -45.152)" fill="#5c5c5c"/>
        <path id="Path_23381" data-name="Path 23381" d="M227.381,200.313a22.432,22.432,0,0,0-.532,5.447c.546-1.162.546-1.162.9-1.877l1.107,1.008a19.328,19.328,0,0,0-1.639,3.936L225.7,209a13.3,13.3,0,0,1-.617-4.314,22.9,22.9,0,0,1,.477-4.579Zm6.457-.224c.1,1.177.252,3.067.252,4.65,0,3.25-.686,5.658-4.383,7.465l-1.527-1.3c3.417-1.638,4.006-3.277,4.006-6.33,0-1.61-.112-2.927-.238-4.482Z" transform="translate(-50.894 -45.242)" fill="#5c5c5c"/>
      </g>
    </g>
  </g>
</svg>
